<svg width="10" height="10" viewBox="0 0 10 10" fill="none" xmlns="http://www.w3.org/2000/svg">
<path fill-rule="evenodd" clip-rule="evenodd" d="M9 5C9 5.15153 8.94074 5.29684 8.83527 5.40399C8.72979 5.51113 8.58673 5.57133 8.43756 5.57133L1.92117 5.57133L4.33627 8.02345C4.38856 8.07657 4.43005 8.13964 4.45835 8.20904C4.48665 8.27844 4.50121 8.35283 4.50121 8.42795C4.50121 8.50308 4.48665 8.57746 4.45835 8.64687C4.43005 8.71627 4.38856 8.77933 4.33627 8.83245C4.28398 8.88557 4.2219 8.92771 4.15357 8.95646C4.08525 8.9852 4.01202 9 3.93807 9C3.86411 9 3.79088 8.9852 3.72256 8.95646C3.65423 8.92771 3.59215 8.88557 3.53986 8.83245L0.165236 5.4045C0.112859 5.35143 0.0713031 5.28838 0.0429485 5.21897C0.0145948 5.14956 -2.22678e-07 5.07515 -2.18572e-07 5C-2.14466e-07 4.92485 0.0145948 4.85044 0.0429485 4.78103C0.0713032 4.71162 0.112859 4.64857 0.165236 4.5955L3.53986 1.16755C3.59215 1.11443 3.65423 1.07229 3.72256 1.04354C3.79088 1.0148 3.86411 1 3.93807 1C4.01202 1 4.08525 1.0148 4.15357 1.04354C4.2219 1.07229 4.28398 1.11443 4.33627 1.16755C4.44188 1.27483 4.50121 1.42033 4.50121 1.57205C4.50121 1.64717 4.48665 1.72156 4.45835 1.79096C4.43005 1.86036 4.38856 1.92343 4.33627 1.97655L1.92117 4.42867L8.43756 4.42867C8.58673 4.42867 8.72979 4.48887 8.83527 4.59601C8.94074 4.70316 9 4.84848 9 5Z" fill="#5168F4"/>
</svg>
