<svg width="20" height="18" viewBox="0 0 20 18" fill="none" xmlns="http://www.w3.org/2000/svg">
<path d="M1 2.1428C1 1.8397 1.11853 1.54901 1.32951 1.33468C1.54048 1.12035 1.82663 0.999939 2.125 0.999939H17.875C18.1734 0.999939 18.4595 1.12035 18.6705 1.33468C18.8815 1.54901 19 1.8397 19 2.1428C19 2.44591 18.8815 2.7366 18.6705 2.95093C18.4595 3.16526 18.1734 3.28567 17.875 3.28567H2.125C1.82663 3.28567 1.54048 3.16526 1.32951 2.95093C1.11853 2.7366 1 2.44591 1 2.1428Z" fill="#090D68"/>
<path d="M1 15.8571C1 15.554 1.11853 15.2633 1.32951 15.0489C1.54048 14.8346 1.82663 14.7142 2.125 14.7142H17.875C18.1734 14.7142 18.4595 14.8346 18.6705 15.0489C18.8815 15.2633 19 15.554 19 15.8571C19 16.1602 18.8815 16.4509 18.6705 16.6652C18.4595 16.8795 18.1734 16.9999 17.875 16.9999H2.125C1.82663 16.9999 1.54048 16.8795 1.32951 16.6652C1.11853 16.4509 1 16.1602 1 15.8571Z" fill="#090D68"/>
<path d="M2.125 7.85711C1.82663 7.85711 1.54048 7.97752 1.32951 8.19185C1.11853 8.40618 1 8.69687 1 8.99998C1 9.30308 1.11853 9.59377 1.32951 9.8081C1.54048 10.0224 1.82663 10.1428 2.125 10.1428H11.125C11.4234 10.1428 11.7095 10.0224 11.9205 9.8081C12.1315 9.59377 12.25 9.30308 12.25 8.99998C12.25 8.69687 12.1315 8.40618 11.9205 8.19185C11.7095 7.97752 11.4234 7.85711 11.125 7.85711H2.125Z" fill="#090D68"/>
<path d="M1 2.1428C1 1.8397 1.11853 1.54901 1.32951 1.33468C1.54048 1.12035 1.82663 0.999939 2.125 0.999939H17.875C18.1734 0.999939 18.4595 1.12035 18.6705 1.33468C18.8815 1.54901 19 1.8397 19 2.1428C19 2.44591 18.8815 2.7366 18.6705 2.95093C18.4595 3.16526 18.1734 3.28567 17.875 3.28567H2.125C1.82663 3.28567 1.54048 3.16526 1.32951 2.95093C1.11853 2.7366 1 2.44591 1 2.1428Z" stroke="#090D68" stroke-width="0.4"/>
<path d="M1 15.8571C1 15.554 1.11853 15.2633 1.32951 15.0489C1.54048 14.8346 1.82663 14.7142 2.125 14.7142H17.875C18.1734 14.7142 18.4595 14.8346 18.6705 15.0489C18.8815 15.2633 19 15.554 19 15.8571C19 16.1602 18.8815 16.4509 18.6705 16.6652C18.4595 16.8795 18.1734 16.9999 17.875 16.9999H2.125C1.82663 16.9999 1.54048 16.8795 1.32951 16.6652C1.11853 16.4509 1 16.1602 1 15.8571Z" stroke="#090D68" stroke-width="0.4"/>
<path d="M2.125 7.85711C1.82663 7.85711 1.54048 7.97752 1.32951 8.19185C1.11853 8.40618 1 8.69687 1 8.99998C1 9.30308 1.11853 9.59377 1.32951 9.8081C1.54048 10.0224 1.82663 10.1428 2.125 10.1428H11.125C11.4234 10.1428 11.7095 10.0224 11.9205 9.8081C12.1315 9.59377 12.25 9.30308 12.25 8.99998C12.25 8.69687 12.1315 8.40618 11.9205 8.19185C11.7095 7.97752 11.4234 7.85711 11.125 7.85711H2.125Z" stroke="#090D68" stroke-width="0.4"/>
</svg>
