<svg width="18" height="16" viewBox="0 0 18 16" fill="none" xmlns="http://www.w3.org/2000/svg">
<path d="M5.42299 12.0182C4.01516 11.0186 2.90111 9.7184 2.27159 8.89736C2.09556 8.67071 2 8.39191 2 8.10493C2 7.81795 2.09556 7.53915 2.27159 7.3125C3.41082 5.82532 6.14407 2.7632 9.33514 2.7632C10.7666 2.7632 12.105 3.37898 13.2496 4.19315M10.9604 6.4923C10.7485 6.27686 10.496 6.10552 10.2176 5.98814C9.93912 5.87076 9.64018 5.80968 9.338 5.80841C9.03582 5.80715 8.73638 5.86573 8.45695 5.98076C8.17752 6.0958 7.92363 6.26503 7.70993 6.47868C7.49623 6.69233 7.32694 6.94618 7.21184 7.22558C7.09673 7.50499 7.03808 7.80441 7.03928 8.1066C7.04047 8.40878 7.10149 8.70773 7.2188 8.98622C7.33611 9.2647 7.50739 9.5172 7.72278 9.72916M3.23064 14.2088L15.4394 2M7.80894 13.2197C8.30432 13.3672 8.81819 13.4432 9.33504 13.4456C12.5261 13.4456 15.2594 10.3835 16.3986 8.8963C16.5746 8.66945 16.67 8.39047 16.6699 8.10336C16.6698 7.81625 16.574 7.53736 16.3978 7.31068C15.9975 6.78836 15.5679 6.28905 15.1113 5.8151" stroke="#161620" stroke-width="1.5" stroke-linecap="round" stroke-linejoin="round"/>
</svg>
