<svg width="77" height="16" viewBox="0 0 77 16" fill="none" xmlns="http://www.w3.org/2000/svg">
<path d="M5.5 13.2288C5.28622 13.2943 5.07244 13.3224 4.83922 13.3224C3.60512 13.3224 2.61396 12.3581 2.61396 11.1785V6.3663L1.74912 5.78584H5.50972V3.72616H2.60424V0H0V11.684H0.00971731C0.10689 14.0808 2.14753 16 4.66431 16C5.71378 16 6.66608 15.663 7.44346 15.1012L5.5 13.2288Z" fill="#090D68"/>
<path d="M46.0212 0V4.87771C44.962 4.12873 43.6696 3.68871 42.2606 3.68871C38.7429 3.68871 35.8958 6.43183 35.8958 9.82095C35.8958 13.2101 38.7429 15.9532 42.2606 15.9532C44.3693 15.9532 46.2447 14.9608 47.4011 13.4348L46.0212 15.7098H48.6254V0H46.0212ZM46.3807 10.261C46.3807 10.2797 46.371 10.3078 46.371 10.3265C46.3516 10.4482 46.3322 10.5699 46.303 10.6916C46.303 10.701 46.2933 10.7197 46.2933 10.7291C46.2641 10.8602 46.2253 10.9912 46.1767 11.1129C46.1281 11.244 46.0795 11.3751 46.0115 11.5061C45.3507 12.873 43.9223 13.828 42.2509 13.828C39.9576 13.828 38.1016 12.0398 38.1016 9.83031C38.1016 7.62083 39.9576 5.83265 42.2509 5.83265C43.9223 5.83265 45.3604 6.7876 46.0115 8.15448C46.0698 8.28555 46.1281 8.40726 46.1767 8.54769C46.2253 8.6694 46.2544 8.80047 46.2933 8.93154C46.2933 8.9409 46.303 8.95963 46.303 8.96899C46.3322 9.0907 46.3516 9.21241 46.371 9.33411C46.371 9.35284 46.3807 9.38093 46.3807 9.39965C46.4002 9.54008 46.4099 9.68988 46.4099 9.83031C46.4099 9.98011 46.4002 10.1205 46.3807 10.261Z" fill="#090D68"/>
<path d="M28.0733 3.68871C24.8569 3.68871 22.8163 5.85138 20.9797 8.22937C19.1431 5.85138 17.1025 3.68871 13.886 3.68871C10.3684 3.68871 7.51148 6.44119 7.51148 9.83031C7.51148 13.2194 10.3684 15.9719 13.886 15.9719C17.1025 15.9719 19.1431 13.8092 20.9797 11.4312C22.8163 13.8092 24.8569 15.9719 28.0733 15.9719C31.591 15.9719 34.4479 13.2194 34.4479 9.83031C34.4479 6.44119 31.591 3.68871 28.0733 3.68871ZM13.886 13.828C11.6025 13.828 9.73675 12.0304 9.73675 9.83031C9.73675 7.63019 11.6025 5.83265 13.886 5.83265C16.1599 5.83265 17.7535 7.63019 19.4346 9.83031C17.7633 12.0304 16.1696 13.828 13.886 13.828ZM28.0733 13.828C25.7898 13.828 24.2058 12.0304 22.5247 9.83031C24.2058 7.63019 25.7995 5.83265 28.0733 5.83265C30.3569 5.83265 32.2226 7.63019 32.2226 9.83031C32.2226 12.0304 30.3666 13.828 28.0733 13.828Z" fill="#090D68"/>
<path d="M70.6254 3.68871C67.409 3.68871 65.3684 5.85138 63.5318 8.22937C61.6952 5.85138 59.6546 3.68871 56.4382 3.68871C52.9205 3.68871 50.0636 6.44119 50.0636 9.83031C50.0636 13.2194 52.9205 15.9719 56.4382 15.9719C59.6546 15.9719 61.6952 13.8092 63.5318 11.4312C65.3684 13.8092 67.409 15.9719 70.6254 15.9719C74.1431 15.9719 77 13.2194 77 9.83031C77 6.44119 74.1431 3.68871 70.6254 3.68871ZM56.4479 13.828C54.1643 13.828 52.2986 12.0304 52.2986 9.83031C52.2986 7.63019 54.1643 5.83265 56.4479 5.83265C58.7217 5.83265 60.3154 7.63019 61.9965 9.83031C60.3154 12.0304 58.7217 13.828 56.4479 13.828ZM70.6254 13.828C68.3419 13.828 66.7579 12.0304 65.0769 9.83031C66.7579 7.63019 68.3516 5.83265 70.6254 5.83265C72.909 5.83265 74.7747 7.63019 74.7747 9.83031C74.7747 12.0304 72.9187 13.828 70.6254 13.828Z" fill="#090D68"/>
</svg>
