<svg width="508" height="598" viewBox="0 0 508 598" fill="none" xmlns="http://www.w3.org/2000/svg">
<path d="M253.615 598C393.683 598 507.231 591.284 507.231 583C507.231 574.716 393.683 568 253.615 568C113.547 568 0 574.716 0 583C0 591.284 113.547 598 253.615 598Z" fill="#F5F5F5"/>
<path d="M241.957 485H56.2157L46.0523 154.007H231.794L241.957 485Z" fill="#407BFF"/>
<path d="M251.231 474.724H65.4897L55.3132 143.73H241.054L251.231 474.724Z" fill="#407BFF"/>
<path opacity="0.3" d="M251.231 474.724H65.4897L55.3132 143.73H241.054L251.231 474.724Z" fill="white"/>
<path d="M188.998 279.934C208.886 257.517 208.04 220.862 187.108 198.062C166.177 175.263 133.086 174.952 113.199 197.369C93.3112 219.785 94.1573 256.441 115.089 279.24C136.02 302.04 169.11 302.35 188.998 279.934Z" fill="#407BFF"/>
<path d="M194.227 238.664C194.494 246.551 192.941 254.384 189.714 261.42C186.231 269.002 180.91 275.359 174.349 279.778C167.787 284.197 160.244 286.502 152.566 286.436C144.707 286.389 136.998 284.053 130.211 279.662C123.425 275.271 117.8 268.98 113.9 261.42C110.264 254.492 108.233 246.674 107.988 238.664C107.747 232.454 108.647 226.254 110.635 220.441C112.623 214.628 115.657 209.324 119.553 204.851C123.448 200.377 128.123 196.828 133.295 194.419C138.466 192.009 144.026 190.79 149.636 190.835C161.193 190.926 172.274 195.946 180.578 204.853C188.881 213.76 193.77 225.869 194.227 238.664Z" fill="white"/>
<path opacity="0.6" d="M189.688 261.42C186.205 269.002 180.884 275.359 174.323 279.778C167.761 284.197 160.218 286.502 152.54 286.436C144.681 286.389 136.972 284.053 130.185 279.662C123.399 275.271 117.773 268.98 113.874 261.42C124.936 253.063 138.026 248.62 151.415 248.68C165.019 248.712 178.32 253.14 189.688 261.42Z" fill="#407BFF"/>
<path opacity="0.6" d="M164.537 237.473C171.85 229.23 171.539 215.751 163.842 207.368C156.145 198.984 143.978 198.87 136.665 207.113C129.352 215.356 129.663 228.834 137.36 237.218C145.056 245.601 157.224 245.716 164.537 237.473Z" fill="#407BFF"/>
<path d="M213.913 354.861H95.4307L94.6328 328.772H213.115L213.913 354.861Z" fill="white"/>
<path d="M215.352 401.487H96.8564L96.0585 375.398H214.554L215.352 401.487Z" fill="white"/>
<path d="M169.623 378.993L141.068 383.341C140.796 383.375 140.533 383.472 140.295 383.624C140.058 383.777 139.852 383.982 139.69 384.227C139.528 384.472 139.413 384.751 139.353 385.048C139.293 385.344 139.289 385.651 139.341 385.95L143.096 407.154C143.218 407.776 143.547 408.325 144.017 408.692C144.486 409.06 145.063 409.219 145.633 409.14L174.188 404.791C174.459 404.753 174.721 404.654 174.957 404.499C175.193 404.344 175.397 404.137 175.558 403.892C175.719 403.646 175.832 403.366 175.891 403.069C175.95 402.773 175.953 402.466 175.901 402.168L172.16 380.964C172.037 380.342 171.708 379.795 171.238 379.43C170.768 379.065 170.192 378.909 169.623 378.993ZM161.421 400.472L156.189 401.24L155.679 394.399C155.14 394.141 154.665 393.743 154.294 393.238C153.922 392.734 153.666 392.138 153.547 391.501C153.451 391.007 153.449 390.497 153.542 390.002C153.635 389.508 153.821 389.041 154.087 388.631C154.354 388.221 154.695 387.878 155.088 387.623C155.482 387.368 155.919 387.208 156.372 387.153C157.301 387.02 158.241 387.279 159.007 387.877C159.772 388.476 160.307 389.37 160.506 390.385C160.619 390.997 160.584 391.632 160.405 392.225C160.226 392.818 159.909 393.348 159.485 393.762L161.421 400.472Z" fill="#407BFF"/>
<path d="M166.797 377.848C166.292 377.919 165.782 377.778 165.366 377.454C164.949 377.13 164.657 376.645 164.547 376.094L164.181 374.021C163.658 371.193 162.228 368.671 160.154 366.922C158.081 365.174 155.505 364.318 152.906 364.513C151.594 364.596 150.314 364.991 149.152 365.671C147.99 366.351 146.974 367.299 146.172 368.453C145.37 369.607 144.802 370.938 144.506 372.356C144.21 373.775 144.193 375.247 144.456 376.674L144.875 379.065C144.923 379.33 144.922 379.604 144.869 379.868C144.817 380.132 144.716 380.381 144.572 380.599C144.428 380.818 144.244 381 144.033 381.135C143.821 381.271 143.587 381.355 143.344 381.384C142.838 381.462 142.325 381.325 141.907 380.999C141.489 380.674 141.199 380.184 141.094 379.63L140.741 377.616C140.382 375.733 140.37 373.789 140.706 371.901C141.042 370.013 141.719 368.22 142.697 366.629C143.674 365.038 144.932 363.683 146.394 362.644C147.856 361.606 149.493 360.905 151.205 360.586C154.919 359.895 158.73 360.815 161.847 363.154C164.965 365.494 167.15 369.074 167.948 373.152L168.367 375.529C168.416 375.797 168.413 376.074 168.358 376.341C168.304 376.608 168.199 376.859 168.051 377.078C167.903 377.297 167.714 377.479 167.498 377.611C167.282 377.744 167.043 377.824 166.797 377.848Z" fill="#407BFF"/>
<path d="M195.796 438.026H118.661L118.151 421.039H195.273L195.796 438.026Z" fill="#407BFF"/>
<path d="M158.583 341.816C158.606 342.436 158.515 343.054 158.316 343.634C158.117 344.213 157.814 344.742 157.425 345.188C157.036 345.634 156.569 345.988 156.053 346.228C155.537 346.468 154.983 346.589 154.423 346.585C153.27 346.575 152.164 346.075 151.334 345.187C150.504 344.3 150.013 343.093 149.963 341.816C149.94 341.197 150.03 340.579 150.229 339.999C150.428 339.419 150.732 338.891 151.121 338.445C151.51 337.999 151.976 337.645 152.492 337.405C153.008 337.165 153.563 337.044 154.122 337.048C155.277 337.054 156.384 337.554 157.215 338.442C158.046 339.33 158.536 340.538 158.583 341.816Z" fill="#263238"/>
<path d="M139.982 341.816C140.007 342.437 139.918 343.056 139.72 343.636C139.521 344.217 139.218 344.746 138.829 345.193C138.439 345.639 137.972 345.992 137.455 346.232C136.938 346.471 136.383 346.591 135.823 346.585C134.671 346.575 133.566 346.074 132.738 345.186C131.911 344.299 131.423 343.092 131.376 341.816C131.352 341.197 131.443 340.579 131.642 339.999C131.841 339.419 132.144 338.891 132.533 338.445C132.922 337.999 133.389 337.645 133.905 337.405C134.421 337.165 134.975 337.044 135.535 337.048C136.688 337.055 137.794 337.554 138.623 338.443C139.452 339.331 139.939 340.54 139.982 341.816Z" fill="#263238"/>
<path d="M121.5 341.816C121.523 342.436 121.432 343.054 121.233 343.634C121.034 344.213 120.731 344.742 120.342 345.188C119.953 345.634 119.486 345.988 118.97 346.228C118.454 346.468 117.9 346.589 117.34 346.585C116.187 346.578 115.081 346.079 114.252 345.19C113.424 344.302 112.937 343.093 112.893 341.816C112.87 341.197 112.961 340.579 113.16 339.999C113.359 339.419 113.662 338.891 114.051 338.445C114.44 337.999 114.906 337.645 115.422 337.405C115.938 337.165 116.493 337.044 117.053 337.048C118.206 337.055 119.312 337.554 120.14 338.443C120.969 339.331 121.456 340.54 121.5 341.816Z" fill="#263238"/>
<path d="M177.118 341.816C177.141 342.436 177.05 343.054 176.851 343.634C176.652 344.213 176.349 344.742 175.96 345.188C175.571 345.634 175.104 345.987 174.588 346.227C174.072 346.468 173.518 346.589 172.958 346.585C171.805 346.578 170.699 346.078 169.87 345.19C169.042 344.302 168.555 343.093 168.511 341.816C168.491 341.198 168.585 340.583 168.787 340.006C168.988 339.43 169.293 338.905 169.684 338.463C170.074 338.021 170.541 337.672 171.056 337.436C171.572 337.2 172.126 337.083 172.683 337.091C173.828 337.101 174.925 337.596 175.75 338.475C176.575 339.354 177.064 340.55 177.118 341.816Z" fill="#263238"/>
<path d="M195.652 341.816C195.677 342.437 195.588 343.056 195.39 343.636C195.191 344.217 194.888 344.746 194.499 345.193C194.11 345.639 193.642 345.992 193.125 346.232C192.609 346.471 192.053 346.591 191.493 346.585C190.341 346.575 189.236 346.074 188.409 345.186C187.581 344.299 187.093 343.092 187.046 341.816C187.023 341.197 187.113 340.579 187.312 339.999C187.511 339.419 187.815 338.891 188.203 338.445C188.592 337.999 189.059 337.645 189.575 337.405C190.091 337.165 190.646 337.044 191.205 337.048C192.358 337.055 193.464 337.554 194.293 338.443C195.122 339.331 195.609 340.54 195.652 341.816Z" fill="#263238"/>
<path d="M358.621 219.642C360.519 222.883 362.103 225.971 363.73 229.197C365.357 232.422 366.827 235.662 368.268 238.978C371.209 245.692 373.643 252.644 375.546 259.767C375.803 260.66 375.989 261.614 376.203 262.538L376.517 263.946L376.674 264.642L376.859 265.793C377.181 268.403 377.031 271.055 376.417 273.606C375.432 277.566 373.933 281.363 371.964 284.886C368.443 291.289 364.186 297.204 359.292 302.495L353.284 297.68C356.3 291.799 358.983 285.731 361.319 279.511C362.359 276.77 363.092 273.909 363.502 270.986C363.633 270.094 363.594 269.183 363.388 268.306L362.817 266.459C362.589 265.702 362.375 264.945 362.103 264.173C359.933 257.926 357.422 251.819 354.583 245.882C351.729 239.826 348.661 233.769 345.592 227.985L358.621 219.642Z" fill="#FF8B7B"/>
<path d="M354.811 295.576L348.247 299.255L355.782 308.612C355.782 308.612 360.491 305.236 360.705 300.088L354.811 295.576Z" fill="#FF8B7B"/>
<path d="M339.442 305.024L347.505 311.822L355.782 308.613L348.247 299.255L339.442 305.024Z" fill="#FF8B7B"/>
<path d="M311.871 170.1C311.714 170.948 311.157 171.539 310.644 171.433C310.13 171.327 309.83 170.539 309.987 169.707C310.144 168.874 310.701 168.192 311.229 168.374C311.757 168.556 312.028 169.252 311.871 170.1Z" fill="#263238"/>
<path d="M311.229 171.554C309.792 173.925 308.053 176.076 306.063 177.943C306.533 178.46 307.103 178.863 307.733 179.125C308.364 179.386 309.04 179.5 309.716 179.458L311.229 171.554Z" fill="#FF5652"/>
<path d="M308.66 201.261V191.328L321.047 192.842C321.047 192.842 320.847 201.382 313.911 203.896L308.66 201.261Z" fill="#FF8B7B"/>
<path d="M312.228 184.182L320.947 186.847L321.104 192.918L308.717 191.328L312.228 184.182Z" fill="#FF8B7B"/>
<path opacity="0.2" d="M320.947 186.847L312.228 184.182L310.529 187.634C310.622 190.354 311.423 192.994 312.844 195.26C314.265 197.527 316.249 199.331 318.578 200.474C320.076 198.253 320.952 195.629 321.104 192.903L320.947 186.847Z" fill="black"/>
<path d="M315.667 166.058C315.758 166.055 315.847 166.025 315.923 165.971C315.999 165.917 316.059 165.842 316.097 165.753C316.134 165.664 316.147 165.566 316.134 165.47C316.121 165.374 316.083 165.284 316.024 165.21C315.522 164.609 314.893 164.145 314.188 163.855C313.483 163.565 312.722 163.459 311.971 163.544C311.848 163.566 311.738 163.64 311.666 163.747C311.594 163.855 311.565 163.989 311.585 164.12C311.606 164.251 311.675 164.369 311.776 164.448C311.877 164.527 312.003 164.561 312.128 164.544C312.723 164.482 313.324 164.572 313.88 164.806C314.436 165.04 314.931 165.412 315.324 165.891C315.368 165.942 315.421 165.983 315.48 166.011C315.538 166.04 315.602 166.056 315.667 166.058Z" fill="#263238"/>
<path d="M333.905 185.423C332.478 193.221 331.593 204.017 336.759 209.21C336.759 209.21 334.761 217.114 321.061 217.114C306.063 217.114 313.854 210.179 313.854 210.179C320.091 208.12 320.034 200.595 318.607 194.538L333.905 185.423Z" fill="#FF8B7B"/>
<path d="M339.542 214.419C340.883 212.42 340.826 206.076 339.399 204.956C337.101 203.154 327.24 202.73 313.983 205.97C315.41 212.117 312.342 215.327 312.342 215.327L339.542 214.419Z" fill="#407BFF"/>
<path d="M384.152 573.887C383.744 574.039 383.313 574.104 382.882 574.078C382.45 574.052 382.028 573.936 381.64 573.736C381.493 573.59 381.392 573.4 381.351 573.191C381.31 572.982 381.331 572.765 381.412 572.57C381.457 572.406 381.535 572.255 381.641 572.127C381.747 571.998 381.878 571.896 382.025 571.828C383.381 571.131 386.492 572.479 386.635 572.54C386.677 572.558 386.714 572.589 386.739 572.63C386.764 572.67 386.778 572.718 386.777 572.767C386.777 572.815 386.765 572.863 386.743 572.905C386.72 572.948 386.688 572.983 386.649 573.009C385.844 573.384 385.008 573.678 384.152 573.887ZM382.51 572.176C382.416 572.2 382.325 572.235 382.239 572.282C382.15 572.317 382.07 572.373 382.006 572.447C381.941 572.52 381.894 572.609 381.868 572.706C381.74 573.16 381.868 573.312 381.954 573.357C382.496 573.842 384.494 573.357 385.907 572.797C384.832 572.325 383.672 572.113 382.51 572.176Z" fill="#407BFF"/>
<path d="M386.592 573.024H386.478C385.336 572.676 382.91 570.844 382.882 569.647C382.88 569.457 382.941 569.273 383.052 569.124C383.164 568.975 383.32 568.871 383.495 568.83C383.664 568.763 383.846 568.736 384.026 568.752C384.206 568.767 384.38 568.825 384.537 568.921C385.878 569.647 386.735 572.585 386.763 572.721C386.783 572.758 386.794 572.8 386.794 572.842C386.794 572.885 386.783 572.927 386.763 572.963C386.741 572.987 386.714 573.005 386.684 573.015C386.655 573.026 386.623 573.029 386.592 573.024ZM383.738 569.254H383.624C383.338 569.36 383.338 569.511 383.338 569.587C383.338 570.299 384.965 571.737 386.192 572.312C385.893 571.464 385.236 569.784 384.366 569.284C384.172 569.191 383.953 569.18 383.752 569.254H383.738Z" fill="#407BFF"/>
<path d="M310.03 575.674C308.746 575.674 307.504 575.477 307.09 574.871C306.982 574.71 306.924 574.517 306.924 574.319C306.924 574.121 306.982 573.927 307.09 573.766C307.172 573.618 307.281 573.489 307.411 573.388C307.541 573.286 307.689 573.214 307.846 573.175C309.516 572.691 313.027 574.811 313.169 574.902C313.213 574.924 313.248 574.962 313.269 575.009C313.29 575.056 313.295 575.109 313.284 575.159C313.278 575.211 313.257 575.259 313.224 575.298C313.19 575.336 313.146 575.361 313.098 575.371C312.086 575.568 311.059 575.669 310.03 575.674ZM308.446 573.599C308.295 573.573 308.14 573.573 307.989 573.599C307.893 573.621 307.801 573.662 307.72 573.722C307.639 573.782 307.57 573.859 307.518 573.948C307.347 574.266 307.418 574.417 307.518 574.508C307.989 575.204 310.515 575.219 312.385 574.932C311.164 574.224 309.827 573.772 308.446 573.599Z" fill="#407BFF"/>
<path d="M313.084 575.371H312.984C311.771 574.796 309.373 572.494 309.559 571.283C309.559 570.995 309.787 570.647 310.444 570.586C310.678 570.557 310.916 570.58 311.142 570.653C311.368 570.726 311.577 570.847 311.757 571.01C312.671 572.17 313.22 573.605 313.326 575.114C313.326 575.157 313.317 575.199 313.3 575.239C313.282 575.278 313.257 575.313 313.227 575.341C313.182 575.364 313.133 575.375 313.084 575.371ZM310.629 571.056H310.487C310.058 571.056 310.03 571.268 310.03 571.328C309.916 572.055 311.543 573.872 312.784 574.659C312.675 573.444 312.211 572.296 311.457 571.374C311.223 571.162 310.923 571.049 310.615 571.056H310.629Z" fill="#407BFF"/>
<path d="M324.101 575.128H314.068L313.07 550.463H323.102L324.101 575.128Z" fill="#FF8B7B"/>
<path d="M397.78 570.193L387.976 572.449L378.115 549.48L387.933 547.224L397.78 570.193Z" fill="#FF8B7B"/>
<path d="M387.02 571.404L398.051 568.875C398.244 568.832 398.445 568.859 398.621 568.953C398.798 569.046 398.939 569.2 399.022 569.39L402.846 578.202C402.948 578.416 403.001 578.652 403 578.891C402.999 579.13 402.945 579.366 402.842 579.578C402.739 579.791 402.59 579.975 402.407 580.115C402.224 580.254 402.013 580.346 401.79 580.383C397.937 581.185 396.01 581.382 391.173 582.487C388.19 583.184 381.454 584.925 377.33 585.864C373.206 586.803 371.793 582.608 373.406 581.836C380.612 578.339 383.609 575.265 385.564 572.403C385.918 571.892 386.436 571.537 387.02 571.404Z" fill="#263238"/>
<path d="M314.14 573.887H325.1C325.299 573.888 325.491 573.961 325.647 574.093C325.802 574.225 325.911 574.408 325.956 574.614L327.94 584.077C327.998 584.306 328.005 584.546 327.959 584.778C327.914 585.01 327.818 585.227 327.68 585.413C327.541 585.598 327.363 585.747 327.16 585.846C326.957 585.946 326.736 585.993 326.512 585.985C322.56 585.909 316.851 585.667 311.885 585.667C306.063 585.667 301.054 586 294.232 586C290.108 586 288.966 581.579 290.693 581.17C298.542 579.353 304.964 579.156 311.742 574.72C312.454 574.214 313.284 573.926 314.14 573.887Z" fill="#263238"/>
<path d="M354.711 211.648C364.116 213.934 371.836 239.417 371.836 239.417L353.042 254.664C348.163 249.13 344.721 242.348 343.052 234.981C339.727 221.626 345.093 209.286 354.711 211.648Z" fill="#407BFF"/>
<path opacity="0.4" d="M354.711 211.648C364.116 213.934 371.836 239.417 371.836 239.417L353.042 254.664C348.163 249.13 344.721 242.348 343.052 234.981C339.727 221.626 345.093 209.286 354.711 211.648Z" fill="black"/>
<path d="M305.235 242.036C302.895 244.716 300.554 247.109 298.1 249.607C296.887 250.818 295.659 252.029 294.404 253.195L292.506 254.967L292.035 255.406L291.221 256.102C290.384 256.812 289.457 257.393 288.467 257.829C287.365 258.325 286.182 258.582 284.985 258.586C283.962 258.59 282.947 258.401 281.988 258.025C280.924 257.595 279.953 256.941 279.134 256.102C278.089 255.018 277.322 253.668 276.908 252.181C276.691 251.448 276.552 250.691 276.494 249.925C276.419 249.028 276.419 248.126 276.494 247.23C276.565 246.503 276.651 245.867 276.765 245.276C277.156 243.212 277.709 241.186 278.42 239.22C279.062 237.351 279.801 235.521 280.632 233.739C281.546 231.816 282.416 230.408 283.287 228.803C286.822 222.657 290.857 216.851 295.345 211.451C299.788 206.082 304.685 201.156 309.973 196.734L315.224 202.472C311.543 207.711 307.918 213.328 304.564 218.855C301.227 224.35 298.178 230.037 295.431 235.889C294.817 237.312 294.004 238.917 293.619 240.068C293.108 241.405 292.665 242.769 292.291 244.156C291.932 245.405 291.66 246.68 291.478 247.972C291.468 248.173 291.468 248.376 291.478 248.577C291.478 248.698 291.478 248.759 291.478 248.441C291.455 248.101 291.392 247.766 291.293 247.442C290.984 246.368 290.419 245.398 289.651 244.625C288.969 243.96 288.168 243.445 287.297 243.111C286.531 242.803 285.719 242.644 284.899 242.642C284.111 242.632 283.33 242.791 282.602 243.111C282.355 243.218 282.117 243.345 281.888 243.49L282.43 242.96L284.157 241.294L287.568 237.903C289.823 235.647 292.092 233.239 294.232 230.998L305.235 242.036Z" fill="#FF8B7B"/>
<path opacity="0.2" d="M346.648 230.363C351.757 235.723 353.427 245.504 353.784 253.983L352.956 254.664C348.078 249.13 344.636 242.348 342.967 234.981C342.781 234.193 342.61 233.466 342.481 232.603L346.648 230.363Z" fill="black"/>
<path d="M295.26 222.247C293.205 233.754 291.92 257.39 297.871 304.176H351.615C351.986 295.44 346.805 252.772 354.754 211.572C348.815 210.362 342.809 209.558 336.773 209.165C329.168 208.702 321.545 208.702 313.94 209.165C311.428 209.407 308.945 209.801 306.805 210.21C303.958 210.739 301.33 212.174 299.268 214.324C297.207 216.473 295.809 219.236 295.26 222.247Z" fill="#407BFF"/>
<path opacity="0.4" d="M295.26 222.247C293.205 233.754 291.92 257.39 297.871 304.176H351.615C351.986 295.44 346.805 252.772 354.754 211.572C348.815 210.362 342.809 209.558 336.773 209.165C329.168 208.702 321.545 208.702 313.94 209.165C311.428 209.407 308.945 209.801 306.805 210.21C303.958 210.739 301.33 212.174 299.268 214.324C297.207 216.473 295.809 219.236 295.26 222.247Z" fill="black"/>
<path opacity="0.2" d="M303.48 239.311L293.776 236.843C293.476 243.081 293.447 250.803 293.876 260.357C298.342 254.967 304.05 246.549 303.48 239.311Z" fill="black"/>
<path opacity="0.2" d="M313.07 550.463L313.583 563.182H323.63L323.116 550.463H313.07Z" fill="black"/>
<path opacity="0.2" d="M387.933 547.224L378.115 549.48L383.195 561.32L393.014 559.064L387.933 547.224Z" fill="black"/>
<path d="M338.671 174.037C336.102 184.242 335.075 190.359 329.138 194.599C320.219 201.049 309.088 193.66 308.803 182.88C308.489 173.144 312.756 158.078 323.073 156.019C325.341 155.568 327.679 155.736 329.868 156.509C332.057 157.281 334.024 158.633 335.585 160.435C337.145 162.238 338.248 164.433 338.788 166.812C339.327 169.192 339.287 171.678 338.671 174.037Z" fill="#FF8B7B"/>
<path d="M316.152 174.416C315.667 173.053 313.455 162.5 315.538 159.759C317.622 157.018 341.383 159.002 344.893 162.666C350.73 168.723 346.677 174.173 340.298 181.184C335.503 186.453 335.317 192.388 332.891 193.297C328.61 194.811 322.074 193.388 320.761 188.588C319.449 183.788 316.152 174.416 316.152 174.416Z" fill="#263238"/>
<path d="M342.01 150.659C333.619 146.874 317.879 151.068 309.373 148.887C309.265 152.243 310.305 155.527 312.301 158.132C314.298 160.737 317.115 162.487 320.233 163.06C327.289 164.486 334.457 165.191 341.639 165.164C350.972 164.71 349.146 153.884 342.01 150.659Z" fill="#263238"/>
<path d="M343.323 162.984C346.389 163.304 349.476 162.678 352.214 161.182C353.784 165.21 345.15 166.315 343.323 162.984Z" fill="#263238"/>
<path d="M320.719 174.84C320.526 177.465 319.523 179.951 317.864 181.911C315.667 184.469 313.383 182.864 312.998 179.76C312.656 176.944 313.369 172.19 316.052 170.827C318.735 169.464 320.904 171.675 320.719 174.84Z" fill="#FF8B7B"/>
<path d="M316.923 304.221C316.923 304.221 328.339 385.606 334.575 416.1C341.411 449.487 378.144 559.942 378.144 559.942L396.11 555.808C396.11 555.808 370.423 465.779 364.715 419.098C360.291 383.244 351.6 304.191 351.6 304.191L316.923 304.221Z" fill="#407BFF"/>
<path d="M373.834 553.598C373.763 553.598 377.188 560.502 377.188 560.502L397.395 555.854L395.697 549.404L373.834 553.598Z" fill="#263238"/>
<path opacity="0.3" d="M324.129 333.217C337.301 335.958 335.903 388.074 334.319 414.889C330.523 395.932 324.957 359.472 321.161 333.596C322.081 333.114 323.128 332.98 324.129 333.217Z" fill="black"/>
<path d="M297.871 304.221C297.871 304.221 296.444 383.849 297.586 416.267C298.728 450.047 309.844 560.654 309.844 560.654H326.855C326.855 560.654 327.469 452.015 328.282 418.841C329.11 382.683 333.22 304.161 333.22 304.161L297.871 304.221Z" fill="#407BFF"/>
<path d="M306.576 553.537C306.491 553.537 307.532 561.017 307.532 561.017H328.211L328.781 554.34L306.576 553.537Z" fill="#263238"/>
<path d="M316.295 225.79C321.104 239.553 292.834 255.77 292.834 255.77L280.59 239.114C280.59 239.114 288.824 221.823 298.813 214.04C311.157 204.441 312.627 215.312 316.295 225.79Z" fill="#407BFF"/>
<path opacity="0.4" d="M316.295 225.79C321.104 239.553 292.834 255.77 292.834 255.77L280.59 239.114C280.59 239.114 288.824 221.823 298.813 214.04C311.157 204.441 312.627 215.312 316.295 225.79Z" fill="black"/>
<path d="M429.5 86.8019C455.572 86.8019 476.707 67.3707 476.707 43.401C476.707 19.4313 455.572 0 429.5 0C403.428 0 382.293 19.4313 382.293 43.401C382.293 67.3707 403.428 86.8019 429.5 86.8019Z" fill="#407BFF"/>
<path d="M412.47 65.2524C409.36 65.2379 406.353 63.6428 403.977 60.7474C401.602 57.8519 400.01 53.8414 399.481 49.4205C398.96 44.6318 399.709 39.736 401.578 35.7078C403.447 31.6795 406.299 28.8142 409.566 27.6822C412.247 26.791 415.054 27.1345 417.593 28.6645C420.131 30.1944 422.274 32.8338 423.719 36.2115L454.026 27.1916C455.191 26.8236 456.409 27.1031 457.437 27.9741C458.465 28.8451 459.227 30.2436 459.572 31.8903C459.731 32.756 459.765 33.6593 459.674 34.5449C459.582 35.4306 459.366 36.28 459.039 37.0412C458.712 37.8024 458.281 38.4595 457.772 38.9722C457.263 39.4849 456.687 39.8426 456.08 40.0232L455.295 40.2497C455.178 40.2798 455.068 40.3483 454.973 40.4497C454.877 40.5512 454.8 40.6829 454.745 40.8346C454.697 40.9888 454.672 41.156 454.672 41.3253C454.672 41.4945 454.697 41.6617 454.745 41.8159L455.282 43.8161C455.461 44.4644 455.479 45.1829 455.331 45.8477C455.183 46.5124 454.878 47.0819 454.471 47.458C454.149 47.7446 453.877 48.1332 453.675 48.5943C453.474 49.0553 453.348 49.5767 453.306 50.1187C453.268 50.7407 453.094 51.3293 452.81 51.8004C452.526 52.2714 452.146 52.6009 451.724 52.7416L451.109 52.9303C450.683 53.0439 450.243 52.9588 449.852 52.6874C449.462 52.416 449.142 51.9723 448.938 51.4207C448.666 50.7625 448.259 50.243 447.773 49.9345C447.287 49.626 446.747 49.5439 446.227 49.6997C445.707 49.8555 445.234 50.2414 444.873 50.8036C444.513 51.3658 444.283 52.0762 444.216 52.8359C444.179 53.454 444.008 54.0394 443.725 54.5075C443.443 54.9756 443.065 55.3022 442.646 55.44L442.031 55.6287C441.605 55.7393 441.166 55.6529 440.776 55.3818C440.386 55.1107 440.065 54.6688 439.86 54.1191C439.664 53.6511 439.4 53.2501 439.086 52.9438C438.772 52.6376 438.416 52.4333 438.042 52.3453C437.539 52.258 437.075 51.9088 436.738 51.3633C436.401 50.8179 436.213 50.1136 436.21 49.3827V47.2316C436.205 47.0633 436.175 46.8986 436.121 46.7489C436.068 46.5991 435.992 46.4678 435.901 46.3639C435.809 46.2599 435.702 46.1859 435.589 46.1468C435.475 46.1076 435.357 46.1043 435.242 46.1371L425.576 49.0053C425.182 52.8687 423.972 56.463 422.111 59.2992C420.251 62.1353 417.829 64.0757 415.177 64.8561C414.286 65.1189 413.379 65.2517 412.47 65.2524ZM409.853 29.3994C406.887 30.3992 404.293 32.9834 402.594 36.6318C400.895 40.2802 400.217 44.7217 400.697 49.0619C401.212 53.0999 402.711 56.7389 404.924 59.3207C407.136 61.9025 409.917 63.2566 412.761 63.138C415.606 63.0195 418.327 61.4361 420.433 58.6743C422.539 55.9125 423.89 52.1547 424.242 48.0807V47.4014L434.902 44.2878C435.208 44.1811 435.527 44.174 435.835 44.2669C436.143 44.3599 436.432 44.5506 436.683 44.8252C436.933 45.0999 437.138 45.4516 437.283 45.8547C437.427 46.2579 437.508 46.7024 437.518 47.1561V49.3073C437.521 49.5634 437.585 49.8102 437.7 50.0061C437.814 50.2021 437.972 50.3351 438.146 50.3828C438.718 50.501 439.264 50.8054 439.742 51.2729C440.22 51.7404 440.618 52.3588 440.906 53.0812C440.976 53.2849 441.087 53.4524 441.225 53.5606C441.364 53.6688 441.522 53.7123 441.678 53.6851L442.28 53.4964C442.432 53.4398 442.568 53.3137 442.667 53.137C442.766 52.9602 442.823 52.7422 442.829 52.5152C442.912 51.3405 443.251 50.234 443.798 49.3557C444.345 48.4774 445.071 47.8727 445.872 47.629C446.673 47.3854 447.506 47.5154 448.253 48.0002C448.999 48.485 449.619 49.2996 450.023 50.3262C450.09 50.5284 450.2 50.6952 450.336 50.8035C450.472 50.9117 450.628 50.956 450.782 50.9301L451.41 50.7414C451.56 50.6813 451.693 50.5538 451.789 50.3774C451.886 50.2009 451.941 49.9847 451.946 49.7601C452.011 48.9316 452.206 48.1354 452.517 47.4323C452.827 46.7292 453.245 46.1377 453.738 45.7031C453.882 45.5531 453.988 45.338 454.037 45.0919C454.087 44.8457 454.078 44.5827 454.013 44.3444L453.477 42.3442C453.366 41.9319 453.318 41.4895 453.338 41.0482C453.358 40.6068 453.445 40.177 453.592 39.7889C453.739 39.4007 453.943 39.0635 454.189 38.8009C454.436 38.5383 454.72 38.3565 455.02 38.2683L455.818 38.023C456.25 37.8902 456.659 37.6331 457.02 37.267C457.381 36.901 457.688 36.4336 457.921 35.8928C458.154 35.352 458.309 34.7488 458.377 34.1195C458.445 33.4901 458.424 32.8474 458.316 32.2299C458.061 31.0424 457.504 30.0381 456.757 29.4186C456.009 28.7991 455.127 28.6102 454.288 28.8899L423.13 38.2306L422.895 37.6456C421.643 34.4307 419.699 31.8909 417.359 30.41C415.018 28.9292 412.406 28.5877 409.919 29.4372L409.853 29.3994ZM412.47 58.2328C410.845 58.2589 409.25 57.6033 407.878 56.3458C406.256 54.8095 405.054 52.5093 404.476 49.8372C403.898 47.1651 403.98 44.2865 404.709 41.6922C405.438 39.0979 406.767 36.9485 408.472 35.6104C410.176 34.2722 412.149 33.8283 414.055 34.3541C415.961 34.88 417.681 36.3431 418.923 38.4941C420.165 40.6451 420.851 43.3508 420.864 46.1499C420.878 48.949 420.218 51.6682 418.997 53.844C417.777 56.0198 416.07 57.5175 414.17 58.0818C413.613 58.2272 413.048 58.2904 412.483 58.2705L412.47 58.2328ZM412.47 35.9473C411.982 35.9513 411.496 36.0208 411.018 36.1549C410.106 36.4349 409.242 36.9711 408.475 37.7329C407.707 38.4947 407.051 39.4671 406.544 40.5947C406.037 41.7222 405.689 42.9828 405.519 44.3045C405.35 45.6262 405.362 46.9831 405.557 48.2977C405.751 49.6123 406.122 50.8589 406.65 51.9663C407.178 53.0736 407.853 54.0201 408.634 54.7517C409.416 55.4832 410.29 55.9856 411.206 56.2299C412.122 56.4743 413.063 56.4559 413.974 56.1759C415.342 55.7651 416.595 54.7792 417.575 53.3425C418.555 51.9059 419.219 50.0827 419.482 48.103C419.745 46.1232 419.595 44.0754 419.053 42.2178C418.51 40.3601 417.599 38.7758 416.433 37.6645C415.275 36.5534 413.913 35.9685 412.522 35.985L412.47 35.9473Z" fill="white"/>
<path opacity="0.6" d="M391.083 112.257C399.651 112.257 406.596 105.871 406.596 97.9918C406.596 90.1131 399.651 83.7261 391.083 83.7261C382.515 83.7261 375.57 90.1131 375.57 97.9918C375.57 105.871 382.515 112.257 391.083 112.257Z" fill="#407BFF"/>
<path opacity="0.3" d="M366.401 118.107C369.919 118.107 372.771 115.488 372.771 112.258C372.771 109.027 369.919 106.408 366.401 106.408C362.882 106.408 360.03 109.027 360.03 112.258C360.03 115.488 362.882 118.107 366.401 118.107Z" fill="#407BFF"/>
</svg>
